<?xml version="1.0" encoding="UTF-8"?>
<svg id="_图层_1" data-name="图层 1" xmlns="http://www.w3.org/2000/svg" xmlns:xlink="http://www.w3.org/1999/xlink" viewBox="0 0 385.51 259.25">
  <defs>
    <style>
      .cls-1 {
        fill: url(#_未命名的渐变_3);
      }

      .cls-2 {
        fill: url(#_未命名的渐变_54-2);
      }

      .cls-3 {
        fill: url(#_未命名的渐变_54-4);
      }

      .cls-4 {
        fill: url(#_未命名的渐变_54-3);
      }

      .cls-5 {
        fill: #565657;
      }

      .cls-6 {
        fill: url(#_未命名的渐变_32);
      }

      .cls-7 {
        fill: url(#_未命名的渐变_54);
      }
    </style>
    <linearGradient id="_未命名的渐变_3" data-name="未命名的渐变 3" x1="88.77" y1="92.04" x2="300.59" y2="92.04" gradientUnits="userSpaceOnUse">
      <stop offset="0" stop-color="#80b8e4"/>
      <stop offset=".02" stop-color="#76b2df"/>
      <stop offset=".07" stop-color="#56a1d0"/>
      <stop offset=".14" stop-color="#3b92c3"/>
      <stop offset=".21" stop-color="#2586b9"/>
      <stop offset=".3" stop-color="#147db1"/>
      <stop offset=".4" stop-color="#0876ac"/>
      <stop offset=".55" stop-color="#0173a8"/>
      <stop offset=".97" stop-color="#0072a8"/>
    </linearGradient>
    <linearGradient id="_未命名的渐变_32" data-name="未命名的渐变 32" x1="96.53" y1="113.17" x2="200.15" y2="113.17" gradientUnits="userSpaceOnUse">
      <stop offset="0" stop-color="#80b8e4"/>
      <stop offset=".08" stop-color="#5ea5d4"/>
      <stop offset=".16" stop-color="#4195c6"/>
      <stop offset=".26" stop-color="#2988bb"/>
      <stop offset=".37" stop-color="#167eb2"/>
      <stop offset=".5" stop-color="#0977ac"/>
      <stop offset=".66" stop-color="#0273a9"/>
      <stop offset="1" stop-color="#0072a8"/>
    </linearGradient>
    <linearGradient id="_未命名的渐变_54" data-name="未命名的渐变 54" x1="271.47" y1="28.48" x2="302.44" y2="28.48" gradientUnits="userSpaceOnUse">
      <stop offset="0" stop-color="#85bf23"/>
      <stop offset=".06" stop-color="#7bbc25"/>
      <stop offset=".51" stop-color="#39a835"/>
      <stop offset=".83" stop-color="#0f9c40"/>
      <stop offset="1" stop-color="#009844"/>
    </linearGradient>
    <linearGradient id="_未命名的渐变_54-2" data-name="未命名的渐变 54" x1="301.81" y1="9.85" x2="332.79" y2="9.85" xlink:href="#_未命名的渐变_54"/>
    <linearGradient id="_未命名的渐变_54-3" data-name="未命名的渐变 54" x1="303.77" y1="45.46" x2="334.75" y2="45.46" xlink:href="#_未命名的渐变_54"/>
    <linearGradient id="_未命名的渐变_54-4" data-name="未命名的渐变 54" x1="334.12" y1="26.84" x2="365.09" y2="26.84" xlink:href="#_未命名的渐变_54"/>
  </defs>
  <g>
    <g>
      <path class="cls-5" d="M10.97,199.34c-.27,0-.51.07-.71.22-.2.15-.34.35-.41.61l-.97,4.34H.54l1.42-5.65c.2-.84.65-1.5,1.35-1.97.69-.47,1.47-.71,2.31-.71h40.13c.81,0,1.56.23,2.24.68.68.46,1.14,1.09,1.37,1.9l1.63,5.75h-8.34l-1.07-4.39c-.07-.26-.21-.45-.43-.58-.22-.13-.47-.19-.74-.19H10.97ZM.59,229.35h20.85v-16.37H1.41v-3.17h20.04v-4.82h-10.32v-3.17h29.3v3.17h-10.32v4.82h20.04v3.17h-20.04v16.37h20.85v3.17H.59v-3.17ZM10.87,215.62l2.44,12.28H5.17l-2.44-12.28h8.14ZM48.81,215.62l-2.29,12.28h-8.44l2.29-12.28h8.44Z"/>
      <path class="cls-5" d="M56.59,232.72l2.09-21.68h8.14l-2.09,21.68h-8.14ZM58.52,201.58l-1.27-6.14h8.09l1.32,6.14h-8.14ZM58.52,209.23l-1.27-6.14h8.09l1.32,6.14h-8.14ZM67.68,199h4.98v-3.7h8.65v3.7h4.93v3.17h-4.93v6.24h4.43v21.05c0,.94-.33,1.75-.99,2.41-.66.67-1.48,1-2.47,1h-10.68c-.95,0-1.76-.33-2.44-1-.68-.67-1.02-1.47-1.02-2.41v-21.05h4.53v-6.24h-4.98v-3.17ZM75.82,211.38v17.78c0,.19.08.37.23.51.15.15.33.22.53.22h.81c.2,0,.38-.07.53-.22.15-.15.23-.32.23-.51v-17.78h-2.34ZM86.65,232.86v-3.17h.2c.2,0,.38-.07.53-.22.15-.15.23-.32.23-.51v-33.42h18.77v33.42c0,1.07-.39,1.99-1.17,2.75-.78.76-1.71,1.14-2.8,1.14h-5.65v-3.17h.51c.27,0,.5-.1.69-.29.19-.19.28-.42.28-.68v-11.55h-2.49v11.79c0,1.07-.4,1.99-1.2,2.75-.8.76-1.74,1.14-2.82,1.14h-5.09ZM95.75,203.19h2.49v-4.68h-2.49v4.68ZM95.75,214.01h2.49v-7.65h-2.49v7.65Z"/>
      <path class="cls-5" d="M120.73,232.72v-27.92h-8.24v-3.17h8.24v-3.12h-7.93v-3.17h24.46v3.17h-7.88v3.12h8.19v3.17h-8.19v27.92h-8.65ZM112.74,232.72l1.07-26.02h5.24l-1.07,26.02h-5.24ZM132.07,232.72l-1.07-26.02h5.29l1.07,26.02h-5.29ZM152.16,232.72v-8.67h-13.89v-3.17h13.89v-25.43h8.65v25.43h1.88v3.17h-1.88v8.67h-8.65ZM139.65,197.49l10.73,1.66v3.61l-10.73-1.66v-3.61ZM139.65,209.52l10.73,1.66v3.61l-10.73-1.66v-3.61Z"/>
      <path class="cls-5" d="M187.58,204.31l-1.53-4.53c-.24-.71-.73-1.07-1.47-1.07h-4.27c-.75,0-1.24.36-1.47,1.07l-1.53,4.53h-8.65l2.03-6.24c.27-.75.71-1.36,1.32-1.83.61-.47,1.32-.71,2.14-.71h16.58c.81,0,1.53.24,2.14.71.61.47,1.05,1.08,1.32,1.83l2.03,6.24h-8.65ZM195.54,221.35c0,1.24-.44,2.28-1.32,3.13-.88.85-1.97,1.27-3.26,1.27h-9.66v-3.17h3.56c.58,0,1.06-.19,1.45-.56.39-.37.58-.82.58-1.34v-11.84h-8.39v18.76c0,.55.19,1.02.58,1.39.39.37.87.56,1.45.56h15.31v3.17h-21.41c-1.29,0-2.37-.42-3.26-1.27-.88-.85-1.32-1.89-1.32-3.12v-22.65h25.69v15.68ZM198.85,227.31v-31.38h7.53v31.38h-7.53ZM218.33,228.33c0,1.2-.45,2.23-1.34,3.09-.89.86-1.96,1.29-3.21,1.29h-11.98v-3.17h6.36c.44,0,.81-.15,1.09-.44.29-.29.43-.63.43-1.02v-32.89h8.65v33.13Z"/>
      <path class="cls-5" d="M235.27,228.28c0,1.2-.45,2.22-1.35,3.07-.9.84-1.98,1.27-3.23,1.27h-6.26v-3.12h1.17c.27,0,.51-.1.71-.29.2-.2.31-.42.31-.68v-22.65l7.27.05-1.32-4.34h8.65l1.32,4.29h17.19l1.58-4.29h8.65l-1.58,4.29h6.21v3.17h-39.32v19.25ZM224.89,197h21.67v-1.85h8.65v1.85h19.38v3.17h-49.69v-3.17Z"/>
      <path class="cls-5" d="M280.53,229.5h12.41v-34.15h8.65v34.15h7.63v-34.15h8.65v34.15h12.41v3.17h-49.74v-3.17ZM281.81,224.63l-1.12-26.41h7.68l1.32,26.41h-7.88ZM320.97,224.63l1.32-26.41h7.83l-1.12,26.41h-8.04Z"/>
      <path class="cls-5" d="M337.3,195.59h48.22v33.23c0,1.07-.4,1.99-1.2,2.75-.8.76-1.75,1.14-2.87,1.14h-40.08c-1.12,0-2.08-.38-2.87-1.14-.8-.76-1.2-1.68-1.2-2.75v-33.23ZM345.94,198.76v29.33c0,.42.15.77.46,1.05.31.28.66.41,1.07.41h27.87c.41,0,.76-.14,1.07-.41.31-.28.46-.62.46-1.05v-29.33h-30.92ZM348.64,227.99l2.14-17.05h-3.15v-3.17h27.57v3.17h-3.41v12.42c0,.42.15.77.45,1.05.3.28.65.41,1.05.41h1.9v3.17h-7.53c-1.25,0-2.32-.42-3.2-1.27-.88-.84-1.32-1.88-1.32-3.12v-12.67h-3.71l-2.19,17.05h-8.6ZM348.48,200.66h25.84v3.17h-25.84v-3.17Z"/>
    </g>
    <g>
      <path class="cls-5" d="M5.4,253.81c0,1.72-.36,3.05-1.09,4-.73.95-1.7,1.43-2.92,1.43-.57,0-1.03-.08-1.39-.24v-1.68c.36.26.83.39,1.41.39,1.53,0,2.29-1.3,2.29-3.89v-9.31h1.7v9.29Z"/>
      <path class="cls-5" d="M14.38,244.52v1.45h-1.41v11.57h1.41v1.45h-4.52v-1.45h1.41v-11.57h-1.41v-1.45h4.52Z"/>
      <path class="cls-5" d="M30.64,259h-2.08l-7.45-11.54c-.19-.29-.34-.59-.46-.91h-.06c.05.31.08.97.08,1.99v10.46h-1.7v-14.48h2.2l7.25,11.36c.3.47.5.79.59.97h.04c-.07-.42-.1-1.13-.1-2.13v-10.2h1.7v14.48Z"/>
      <path class="cls-5" d="M47.51,259h-1.7v-6.6h-7.49v6.6h-1.7v-14.48h1.7v6.35h7.49v-6.35h1.7v14.48Z"/>
      <path class="cls-5" d="M64.09,253.15c0,4.07-1.83,6.1-5.5,6.1s-5.27-1.96-5.27-5.87v-8.86h1.7v8.74c0,2.97,1.25,4.45,3.76,4.45s3.62-1.43,3.62-4.3v-8.9h1.7v8.62Z"/>
      <path class="cls-5" d="M96.44,258.01c-1.45.82-3.07,1.23-4.85,1.23-2.07,0-3.74-.67-5.01-2-1.28-1.33-1.91-3.1-1.91-5.29s.71-4.08,2.13-5.52c1.42-1.44,3.21-2.16,5.39-2.16,1.58,0,2.9.26,3.97.77v1.88c-1.17-.74-2.56-1.11-4.16-1.11s-2.95.56-3.99,1.68c-1.04,1.12-1.56,2.56-1.56,4.34s.48,3.27,1.44,4.32c.96,1.05,2.27,1.57,3.92,1.57,1.13,0,2.11-.23,2.94-.68v-4.06h-3.17v-1.53h4.87v6.56Z"/>
      <path class="cls-5" d="M112.37,259h-2.02l-2.42-4.06c-.22-.38-.44-.7-.65-.96-.21-.27-.42-.48-.64-.65-.22-.17-.45-.29-.71-.37-.25-.08-.54-.12-.85-.12h-1.39v6.16h-1.7v-14.48h4.32c.63,0,1.22.08,1.75.24.54.16,1,.4,1.39.72.39.32.7.73.92,1.21.22.48.33,1.05.33,1.69,0,.5-.08.97-.23,1.39-.15.42-.37.8-.65,1.13-.28.33-.62.61-1.01.84-.39.23-.84.41-1.33.54v.04c.24.11.45.23.63.37.18.14.35.3.51.49.16.19.32.4.48.64.16.24.33.52.53.83l2.72,4.35ZM103.69,246.06v5.25h2.3c.42,0,.82-.06,1.18-.19.36-.13.67-.31.93-.55.26-.24.47-.53.62-.88.15-.35.22-.74.22-1.17,0-.77-.25-1.38-.75-1.81-.5-.43-1.23-.65-2.18-.65h-2.32Z"/>
      <path class="cls-5" d="M122.39,259.25c-2.05,0-3.7-.68-4.93-2.03-1.24-1.35-1.85-3.11-1.85-5.28,0-2.33.63-4.19,1.89-5.57,1.26-1.39,2.97-2.08,5.14-2.08,2,0,3.61.67,4.83,2.02,1.22,1.35,1.83,3.11,1.83,5.28,0,2.36-.63,4.23-1.88,5.6-1.25,1.37-2.93,2.06-5.03,2.06ZM122.51,245.82c-1.52,0-2.76.55-3.71,1.65-.95,1.1-1.42,2.54-1.42,4.32s.46,3.22,1.39,4.31c.93,1.09,2.13,1.63,3.62,1.63,1.59,0,2.84-.52,3.76-1.55.92-1.04,1.37-2.49,1.37-4.35s-.44-3.39-1.33-4.43c-.89-1.04-2.11-1.56-3.68-1.56Z"/>
      <path class="cls-5" d="M144.93,253.15c0,4.07-1.83,6.1-5.5,6.1s-5.27-1.96-5.27-5.87v-8.86h1.7v8.74c0,2.97,1.25,4.45,3.76,4.45s3.62-1.43,3.62-4.3v-8.9h1.7v8.62Z"/>
      <path class="cls-5" d="M152.43,253.53v5.47h-1.7v-14.48h3.98c1.55,0,2.75.38,3.6,1.13.85.75,1.28,1.82,1.28,3.19s-.47,2.5-1.42,3.37c-.95.88-2.22,1.31-3.83,1.31h-1.91ZM152.43,246.06v5.94h1.78c1.17,0,2.06-.27,2.68-.8.62-.54.92-1.29.92-2.27,0-1.91-1.13-2.87-3.39-2.87h-1.99Z"/>
      <path class="cls-5" d="M183.33,244.52v1.45h-1.41v11.57h1.41v1.45h-4.52v-1.45h1.41v-11.57h-1.41v-1.45h4.52Z"/>
      <path class="cls-5" d="M199.59,259h-2.08l-7.45-11.54c-.19-.29-.34-.59-.46-.91h-.06c.05.31.08.97.08,1.99v10.46h-1.7v-14.48h2.2l7.25,11.36c.3.47.5.79.59.97h.04c-.07-.42-.1-1.13-.1-2.13v-10.2h1.7v14.48Z"/>
      <path class="cls-5" d="M205.58,259v-14.48h4c5.1,0,7.65,2.35,7.65,7.06,0,2.24-.71,4.03-2.13,5.39-1.42,1.36-3.31,2.03-5.69,2.03h-3.84ZM207.27,246.06v11.41h2.16c1.9,0,3.38-.51,4.43-1.52,1.06-1.02,1.59-2.46,1.59-4.32,0-3.71-1.97-5.56-5.92-5.56h-2.26Z"/>
      <path class="cls-5" d="M232.86,253.15c0,4.07-1.83,6.1-5.5,6.1s-5.27-1.96-5.27-5.87v-8.86h1.7v8.74c0,2.97,1.25,4.45,3.76,4.45s3.62-1.43,3.62-4.3v-8.9h1.7v8.62Z"/>
      <path class="cls-5" d="M237.99,258.42v-2c.23.2.5.38.82.55.32.16.66.3,1.01.41.35.11.71.2,1.07.26.36.06.69.09.99.09,1.04,0,1.82-.19,2.34-.58.52-.39.77-.94.77-1.67,0-.39-.09-.73-.26-1.02-.17-.29-.41-.55-.71-.79-.3-.24-.66-.47-1.08-.69-.41-.22-.86-.45-1.34-.69-.5-.26-.98-.52-1.41-.78-.44-.26-.82-.55-1.14-.87-.32-.32-.58-.67-.76-1.08-.19-.4-.28-.87-.28-1.41,0-.66.14-1.23.43-1.72.29-.49.67-.89,1.14-1.21.47-.32,1.01-.55,1.61-.71.6-.15,1.22-.23,1.84-.23,1.43,0,2.47.17,3.12.51v1.91c-.86-.59-1.95-.89-3.29-.89-.37,0-.74.04-1.11.12-.37.08-.7.2-.99.38-.29.18-.53.4-.71.68-.18.28-.27.61-.27,1.01,0,.37.07.69.21.96.14.27.34.51.61.74.27.22.6.44.98.65.39.21.83.44,1.34.69.52.26,1.01.52,1.47.81.46.28.87.6,1.22.94.35.34.63.72.83,1.14.21.42.31.9.31,1.43,0,.71-.14,1.32-.42,1.81-.28.49-.66.9-1.13,1.21-.47.31-1.02.53-1.64.67-.62.14-1.27.21-1.96.21-.23,0-.51-.02-.85-.06-.34-.04-.68-.09-1.03-.16-.35-.07-.68-.16-.99-.26-.31-.1-.56-.22-.75-.35Z"/>
      <path class="cls-5" d="M260.41,246.06h-4.18v12.95h-1.7v-12.95h-4.17v-1.53h10.05v1.53Z"/>
      <path class="cls-5" d="M275.25,259h-2.02l-2.42-4.06c-.22-.38-.44-.7-.65-.96-.21-.27-.42-.48-.64-.65-.22-.17-.45-.29-.71-.37-.25-.08-.54-.12-.85-.12h-1.39v6.16h-1.7v-14.48h4.32c.63,0,1.22.08,1.75.24.54.16,1,.4,1.39.72s.7.73.92,1.21c.22.48.33,1.05.33,1.69,0,.5-.08.97-.23,1.39-.15.42-.37.8-.65,1.13-.28.33-.62.61-1.01.84-.39.23-.84.41-1.33.54v.04c.24.11.45.23.63.37.18.14.35.3.51.49.16.19.32.4.48.64.16.24.33.52.53.83l2.72,4.35ZM266.57,246.06v5.25h2.3c.42,0,.82-.06,1.18-.19.36-.13.67-.31.93-.55.26-.24.47-.53.62-.88.15-.35.22-.74.22-1.17,0-.77-.25-1.38-.75-1.81-.5-.43-1.23-.65-2.18-.65h-2.32Z"/>
      <path class="cls-5" d="M282.55,244.52v1.45h-1.41v11.57h1.41v1.45h-4.52v-1.45h1.41v-11.57h-1.41v-1.45h4.52Z"/>
      <path class="cls-5" d="M298.34,259h-1.88l-1.53-4.06h-6.14l-1.44,4.06h-1.89l5.55-14.48h1.76l5.57,14.48ZM294.37,253.42l-2.27-6.17c-.07-.2-.15-.53-.22-.97h-.04c-.07.41-.14.73-.23.97l-2.25,6.17h5.02Z"/>
      <path class="cls-5" d="M310.17,259h-7.51v-14.48h1.7v12.94h5.82v1.53Z"/>
      <path class="cls-5" d="M332,253.53v5.47h-1.7v-14.48h3.98c1.55,0,2.75.38,3.6,1.13.85.75,1.28,1.82,1.28,3.19s-.47,2.5-1.42,3.37c-.95.88-2.22,1.31-3.83,1.31h-1.91ZM332,246.06v5.94h1.78c1.17,0,2.06-.27,2.68-.8s.92-1.29.92-2.27c0-1.91-1.13-2.87-3.39-2.87h-1.99Z"/>
      <path class="cls-5" d="M355.28,259h-1.88l-1.53-4.06h-6.14l-1.44,4.06h-1.89l5.55-14.48h1.76l5.57,14.48ZM351.31,253.42l-2.27-6.17c-.07-.2-.15-.53-.22-.97h-.04c-.07.41-.14.73-.23.97l-2.25,6.17h5.02Z"/>
      <path class="cls-5" d="M369.99,259h-2.02l-2.42-4.06c-.22-.38-.44-.7-.65-.96-.21-.27-.42-.48-.64-.65-.22-.17-.45-.29-.71-.37-.25-.08-.54-.12-.85-.12h-1.39v6.16h-1.7v-14.48h4.32c.63,0,1.22.08,1.75.24.54.16,1,.4,1.39.72s.7.73.92,1.21c.22.48.33,1.05.33,1.69,0,.5-.08.97-.23,1.39-.15.42-.37.8-.65,1.13-.28.33-.62.61-1.01.84-.39.23-.84.41-1.33.54v.04c.24.11.45.23.63.37.18.14.35.3.51.49.16.19.32.4.48.64.16.24.33.52.53.83l2.72,4.35ZM361.3,246.06v5.25h2.3c.42,0,.82-.06,1.18-.19.36-.13.67-.31.93-.55.26-.24.47-.53.62-.88.15-.35.22-.74.22-1.17,0-.77-.25-1.38-.75-1.81-.5-.43-1.23-.65-2.18-.65h-2.32Z"/>
      <path class="cls-5" d="M384.24,259h-2.36l-5.59-6.62c-.21-.25-.34-.42-.38-.5h-.04v7.13h-1.7v-14.48h1.7v6.81h.04c.09-.15.22-.31.38-.49l5.41-6.31h2.11l-6.21,6.95,6.64,7.53Z"/>
    </g>
  </g>
  <g>
    <path class="cls-1" d="M89.7,132.81c-4.21-18.07,3.29-85.73,78.36-111.07,42.01-14.18,77.74-7.32,101.26,4.36-1.71,6.54-3.43,16.2-3.43,16.2l24.77-.31c22.12,23.68,14.33,114.34-96.74,127.74-33.41,4.03-25.7-14.8-25.08-17.45.62-2.65,20.56-59.84,20.56-59.84l-2.34-7.15h30.38s3.12-9.8,4.67-13.23,3.97-5.85,8.18-5.78c4.21.08,20.87,0,20.87,0,0,0-4.36,12.15-5.53,14.96-1.17,2.8-4.52,4.44-8.33,4.44h-13.32l-17.29,51.02s27.16-7.06,46.47-26.28c19.32-19.21,24.2-47.67-.93-64.91-25.13-17.24-59.47-17.05-94.46-3.69-26.76,10.22-69.26,41.74-68.08,90.98Z"/>
    <path class="cls-6" d="M97.07,117.91s.99,20.98,20.2,28.14c2.08-5.61,20.1-59.61,20.1-59.61l-5.82-8.41h32.92s2.86-8.41,3.74-10.9c.88-2.49,4.67-7.27,8.98-7.27h22.95s-4.26,11.58-5.4,14.12c-1.14,2.54-5.04,5.35-9.19,5.35h-15.73l-8,27.47,19.63-1.92s-19.39,13.45-22.12,16.21c-2.73,2.77-3.93,5.76-5.37,10.44-1.44,4.67-8.39,23.93-10.05,28.39-1.66,4.47-8.52,8.15-15.47,5.87-6.96-2.28-36.25-10.23-31.36-47.88Z"/>
    <g>
      <path class="cls-7" d="M271.47,38.33h21.6c2.1,0,6.1-3.4,6.67-6.21.57-2.8,2.7-13.5,2.7-13.5,0,0-17.19.26-20.1.26s-7.54,2.11-8.57,7.01c-.86,4.08-2.31,12.44-2.31,12.44Z"/>
      <path class="cls-2" d="M301.81,19.71h21.6c2.1,0,6.1-3.4,6.67-6.21.57-2.8,2.7-13.5,2.7-13.5,0,0-17.19.26-20.1.26s-7.54,2.11-8.57,7.01c-.86,4.08-2.31,12.44-2.31,12.44Z"/>
      <path class="cls-4" d="M303.77,55.32h21.6c2.1,0,6.1-3.4,6.67-6.21.57-2.8,2.7-13.5,2.7-13.5,0,0-17.19.26-20.1.26s-7.54,2.11-8.57,7.01c-.86,4.08-2.31,12.44-2.31,12.44Z"/>
      <path class="cls-3" d="M334.12,36.69h21.6c2.1,0,6.1-3.4,6.67-6.21.57-2.8,2.7-13.5,2.7-13.5,0,0-17.19.26-20.1.26s-7.54,2.11-8.57,7.01c-.86,4.08-2.31,12.44-2.31,12.44Z"/>
    </g>
  </g>
</svg>